<svg width="875" height="657" viewBox="0 0 875 657" fill="none" xmlns="http://www.w3.org/2000/svg">
<g id="undraw_synchronize_ccxk 1">
<g clip-path="url(#clip0)">
<g id="girls">
<path id="Vector" d="M614.229 582.479C614.229 582.479 622.229 611.479 622.229 615.479C622.229 619.479 635.229 618.479 635.229 618.479L645.229 602.479C645.229 602.479 637.229 586.479 635.229 578.479C633.229 570.479 614.229 582.479 614.229 582.479Z" fill="#FBBEBE"/>
<path id="Vector_2" d="M629.229 609.478C629.229 609.478 641.229 612.478 641.229 603.478C641.229 594.478 646.229 598.478 646.229 598.478C646.229 598.478 658.229 605.478 653.229 612.478C648.229 619.478 639.229 627.478 636.229 634.478C633.229 641.478 624.229 660.478 614.229 656.478C604.229 652.478 611.229 643.478 611.229 643.478C611.229 643.478 619.229 631.478 617.229 621.478C615.229 611.478 614.229 606.478 617.229 606.478C620.229 606.478 625.229 603.478 625.229 607.478C625.229 611.478 629.229 609.478 629.229 609.478Z" fill="#2F2E41"/>
<path id="Vector_3" d="M628.729 237.978C649.716 237.978 666.729 220.965 666.729 199.978C666.729 178.992 649.716 161.978 628.729 161.978C607.742 161.978 590.729 178.992 590.729 199.978C590.729 220.965 607.742 237.978 628.729 237.978Z" fill="#2F2E41"/>
<path id="Vector_4" d="M624.729 201.978C643.507 201.978 658.729 186.756 658.729 167.978C658.729 149.201 643.507 133.978 624.729 133.978C605.952 133.978 590.729 149.201 590.729 167.978C590.729 186.756 605.952 201.978 624.729 201.978Z" fill="#2F2E41"/>
<path id="Vector_5" d="M606.729 368.978L586.729 366.978L578.564 347.006L579.729 328.978H606.729V368.978Z" fill="#3F3D56"/>
<path id="Vector_6" opacity="0.1" d="M606.729 368.978L586.729 366.978L578.564 347.006L579.729 328.978H606.729V368.978Z" fill="black"/>
<path id="Vector_7" d="M608.229 225.478C608.229 225.478 607.229 250.478 603.229 253.478C599.229 256.478 609.229 268.478 609.229 268.478L625.229 264.478L637.229 253.478L632.229 252.478C632.229 252.478 632.229 238.478 635.229 234.478C638.229 230.478 608.229 225.478 608.229 225.478Z" fill="#FBBEBE"/>
<path id="Vector_8" opacity="0.1" d="M608.229 225.478C608.229 225.478 607.229 250.478 603.229 253.478C599.229 256.478 609.229 268.478 609.229 268.478L625.229 264.478L637.229 253.478L632.229 252.478C632.229 252.478 632.229 238.478 635.229 234.478C638.229 230.478 608.229 225.478 608.229 225.478Z" fill="black"/>
<path id="Vector_9" d="M580.229 323.478C580.229 323.478 590.229 349.478 588.229 371.478C586.229 393.478 633.229 374.478 633.229 374.478L647.229 365.478C647.229 365.478 651.229 338.478 647.229 332.478C643.229 326.478 635.229 305.478 635.229 305.478L614.229 302.478L580.229 323.478Z" fill="#FBBEBE"/>
<path id="Vector_10" d="M748.371 438.269C748.371 438.269 765.423 419.421 768.276 417.608C771.128 415.795 764.523 406.978 764.523 406.978L748.581 407.1C748.581 407.1 740.799 420.056 736.001 425.108C731.203 430.16 748.371 438.269 748.371 438.269Z" fill="#FBBEBE"/>
<path id="Vector_11" d="M760.825 415.336C760.825 415.336 757.525 405.42 751.107 409.499C744.69 413.578 745.276 408.2 745.276 408.2C745.276 408.2 744.828 396.471 752.086 396.863C759.343 397.256 769.127 400.047 775.478 399.013C781.829 397.98 799.457 395.786 801.137 404.729C802.817 413.673 793.227 412.761 793.227 412.761C793.227 412.761 781.044 412.495 774.82 418.454C768.596 424.412 765.484 427.392 764.125 425.252C762.765 423.113 758.359 420.908 761.212 419.095C764.064 417.282 760.825 415.336 760.825 415.336Z" fill="#2F2E41"/>
<path id="Vector_12" d="M597.229 243.478C597.229 243.478 585.229 236.478 582.229 216.478C579.229 196.478 558.229 126.478 558.229 126.478C558.229 126.478 544.229 78.4785 539.229 94.4785C534.229 110.478 545.229 128.478 545.229 128.478L559.229 193.478C559.229 193.478 571.229 277.478 577.229 281.478C583.229 285.478 597.229 243.478 597.229 243.478Z" fill="#FBBEBE"/>
<path id="Vector_13" d="M645.925 247.363C645.925 247.363 659.817 247.212 672.313 231.311C684.809 215.41 737.674 164.948 737.674 164.948C737.674 164.948 773.576 130.148 770.011 146.528C766.446 162.907 747.985 173.114 747.985 173.114L703.677 222.691C703.677 222.691 651.714 289.772 644.521 290.282C637.328 290.792 645.925 247.363 645.925 247.363Z" fill="#FBBEBE"/>
<path id="Vector_14" d="M625.229 241.478C639.036 241.478 650.229 230.286 650.229 216.478C650.229 202.671 639.036 191.478 625.229 191.478C611.422 191.478 600.229 202.671 600.229 216.478C600.229 230.286 611.422 241.478 625.229 241.478Z" fill="#FBBEBE"/>
<path id="Vector_15" d="M649.007 349.742C649.007 349.742 614.229 374.478 601.229 370.478C588.229 366.478 586.229 363.478 586.229 363.478C586.229 363.478 574.229 445.478 583.229 477.478C583.229 477.478 584.229 509.478 593.229 521.478L614.229 590.478C614.229 590.478 637.229 589.478 637.229 581.478C637.229 581.478 634.229 564.478 634.229 552.478C634.229 540.478 618.229 510.478 618.229 510.478L629.229 426.478C629.229 426.478 671.229 510.478 688.229 504.478C705.229 498.478 753.229 435.478 753.229 435.478L738.229 421.478C738.229 421.478 696.229 446.478 691.229 459.478C691.229 459.478 657.785 357.006 649.007 349.742Z" fill="#2F2E41"/>
<path id="Vector_16" d="M622.229 256.478C622.229 256.478 635.229 246.478 637.229 246.478H650.229C650.229 246.478 660.229 270.478 656.229 280.478C656.229 280.478 651.229 306.478 650.229 308.478C649.229 310.478 650.229 316.478 652.229 322.478C654.229 328.478 660.229 341.478 657.229 344.478C654.229 347.478 651.229 355.478 649.229 355.478C647.229 355.478 631.229 340.478 628.229 330.478C625.229 320.478 625.229 317.478 618.229 321.478C611.229 325.478 580.229 323.478 582.229 339.478C583.131 347.544 584.466 355.556 586.229 363.478C586.229 363.478 574.229 367.478 572.229 348.478C570.229 329.478 568.229 328.478 574.229 321.478C580.229 314.478 572.229 285.478 572.229 285.478C572.229 285.478 582.229 268.478 584.229 259.478C586.229 250.478 594.229 241.478 594.229 241.478C594.229 241.478 599.229 238.478 602.229 240.478C605.229 242.478 606.834 241.478 606.834 241.478C606.834 241.478 601.229 255.478 607.229 255.478C613.229 255.478 622.229 256.478 622.229 256.478Z" fill="#3F3D56"/>
<path id="Vector_17" opacity="0.1" d="M607.229 364.978C608.058 364.978 608.729 363.635 608.729 361.978C608.729 360.322 608.058 358.978 607.229 358.978C606.401 358.978 605.729 360.322 605.729 361.978C605.729 363.635 606.401 364.978 607.229 364.978Z" fill="black"/>
<path id="Vector_18" d="M627.729 212.978C644.298 212.978 657.729 204.472 657.729 193.978C657.729 183.485 644.298 174.978 627.729 174.978C611.161 174.978 597.729 183.485 597.729 193.978C597.729 204.472 611.161 212.978 627.729 212.978Z" fill="#2F2E41"/>
<path id="Vector_19" d="M329.926 249.713C353.122 249.713 371.926 224.193 371.926 192.713C371.926 161.233 353.122 135.713 329.926 135.713C306.73 135.713 287.926 161.233 287.926 192.713C287.926 224.193 306.73 249.713 329.926 249.713Z" fill="#2F2E41"/>
<path id="Vector_20" d="M340.457 228.811C340.457 228.811 357.426 212.213 359.426 206.213C361.426 200.213 385.426 98.2131 385.426 98.2131C385.426 98.2131 405.426 41.2131 414.426 55.2131C423.426 69.2131 399.426 102.213 399.426 102.213C399.426 102.213 393.426 165.213 389.426 180.213C385.426 195.213 371.426 251.213 362.426 257.213L353.426 275.213L343.426 277.213L334.426 252.213L335.426 242.213L340.457 228.811Z" fill="#A0616A"/>
<path id="Vector_21" d="M390.426 494.213C390.426 494.213 414.426 501.213 417.426 497.213C420.426 493.213 431.426 517.213 431.426 517.213V526.213L421.426 528.213C421.426 528.213 391.426 515.213 386.426 515.213C381.426 515.213 390.426 494.213 390.426 494.213Z" fill="#A0616A"/>
<path id="Vector_22" d="M421.426 509.213C421.426 509.213 407.426 497.213 410.426 495.213C413.426 493.213 425.426 479.213 431.426 487.213C437.426 495.213 464.426 539.213 457.426 549.213C450.426 559.213 445.426 553.213 445.426 553.213C445.426 553.213 426.828 528.213 419.627 528.213C419.627 528.213 429.426 517.213 421.426 509.213Z" fill="#2F2E41"/>
<path id="Vector_23" d="M321.426 584.213C321.426 584.213 322.426 617.213 313.426 627.213C304.426 637.213 325.426 635.213 325.426 635.213L347.426 620.213C347.426 620.213 341.426 604.213 343.426 589.213L321.426 584.213Z" fill="#A0616A"/>
<path id="Vector_24" d="M347.426 612.213C347.426 612.213 345.426 610.213 340.426 616.213C335.426 622.213 325.426 629.213 319.426 623.213C313.426 617.213 313.426 622.213 313.426 622.213C313.426 622.213 300.426 643.213 289.426 646.213C278.426 649.213 286.426 659.213 296.426 655.213C306.426 651.213 355.426 634.213 355.426 634.213C355.426 634.213 354.426 620.213 347.426 612.213Z" fill="#2F2E41"/>
<path id="Vector_25" d="M274.426 346.213L259.426 369.213C259.426 369.213 222.426 398.213 241.426 401.213C260.426 404.213 271.426 374.213 271.426 374.213L284.426 358.213L274.426 346.213Z" fill="#A0616A"/>
<path id="Vector_26" d="M269.426 342.213C269.426 342.213 286.426 367.213 294.426 369.213C302.426 371.213 299.426 350.213 299.426 350.213L269.426 342.213Z" fill="#6C63FF"/>
<path id="Vector_27" opacity="0.1" d="M269.426 342.213C269.426 342.213 286.426 367.213 294.426 369.213C302.426 371.213 299.426 350.213 299.426 350.213L269.426 342.213Z" fill="black"/>
<path id="Vector_28" d="M291.426 340.213L294.426 392.213C294.426 392.213 283.426 469.213 300.426 487.213C300.426 487.213 310.426 514.213 310.426 524.213C310.426 534.213 317.426 594.213 317.426 594.213H346.426C346.426 594.213 352.426 511.213 336.426 485.213V343.213L291.426 340.213Z" fill="#2F2E41"/>
<path id="Vector_29" opacity="0.1" d="M290.933 443.264C291.076 461.606 293.27 479.636 300.426 487.213C300.426 487.213 310.426 514.213 310.426 524.213C310.426 534.213 317.426 594.213 317.426 594.213H346.426C346.426 594.213 352.426 511.213 336.426 485.213V448.083" fill="black"/>
<path id="Vector_30" d="M322.426 352.213L292.426 431.213C292.426 431.213 274.426 499.213 296.426 506.213C318.426 513.213 375.426 511.213 384.426 518.213C393.426 525.213 398.426 497.213 395.426 494.213C392.426 491.213 344.426 475.213 324.426 475.213C324.426 475.213 377.426 403.213 364.426 387.213C351.426 371.213 333.426 351.213 322.426 352.213Z" fill="#2F2E41"/>
<path id="Vector_31" d="M315.426 200.213C315.426 200.213 316.426 227.213 311.426 228.213C307.323 229.215 303.309 230.552 299.426 232.213V247.213L307.426 252.213L327.426 240.213L335.426 233.213L343.426 226.213C343.426 226.213 338.426 212.213 343.426 203.213L315.426 200.213Z" fill="#A0616A"/>
<path id="Vector_32" opacity="0.1" d="M315.426 200.213C315.426 200.213 316.426 227.213 311.426 228.213C307.323 229.215 303.309 230.552 299.426 232.213V247.213L307.426 252.213L327.426 240.213L335.426 233.213L343.426 226.213C343.426 226.213 338.426 212.213 343.426 203.213L315.426 200.213Z" fill="black"/>
<path id="Vector_33" d="M311.426 243.213C311.426 243.213 328.426 227.213 332.426 228.213C336.426 229.213 347.926 221.713 347.926 221.713C345.701 229.39 344.194 237.257 343.426 245.213C342.884 251.713 344.103 255.279 345.334 257.182C346.761 259.327 347.92 261.638 348.785 264.065C350.44 268.902 353.506 274.746 357.426 268.213C357.426 268.213 355.426 279.213 353.426 311.213C351.426 343.213 362.426 365.213 362.426 365.213C362.426 365.213 371.426 389.213 367.426 394.213C367.426 394.213 336.426 374.213 338.426 365.213C338.426 365.213 266.426 355.213 266.426 342.213C266.407 338.469 267.309 334.777 269.053 331.464C270.797 328.151 273.329 325.317 276.426 323.213C277.095 317.085 278.436 311.048 280.426 305.213C280.426 305.213 269.426 282.213 279.426 263.213C279.426 263.213 270.426 237.213 282.426 231.213C294.426 225.213 309.426 228.213 309.426 228.213C309.426 228.213 295.426 237.213 304.426 242.213L311.426 243.213Z" fill="#6C63FF"/>
<path id="Vector_34" d="M330.426 212.213C344.233 212.213 355.426 201.02 355.426 187.213C355.426 173.406 344.233 162.213 330.426 162.213C316.619 162.213 305.426 173.406 305.426 187.213C305.426 201.02 316.619 212.213 330.426 212.213Z" fill="#A0616A"/>
<path id="Vector_35" d="M332.426 186.713C347.614 186.713 359.926 180.221 359.926 172.213C359.926 164.205 347.614 157.713 332.426 157.713C317.238 157.713 304.926 164.205 304.926 172.213C304.926 180.221 317.238 186.713 332.426 186.713Z" fill="#2F2E41"/>
</g>
</g>
</g>
<defs>
<clipPath id="clip0">
<rect width="874.169" height="657" fill="white"/>
</clipPath>
</defs>
</svg>
