<svg width="917" height="716" viewBox="0 0 917 716" fill="none" xmlns="http://www.w3.org/2000/svg">
<g id="Group 1">
<path id="Vector" d="M852.454 191.016C879.347 191.016 901.149 169.214 901.149 142.32C901.149 115.427 879.347 93.6255 852.454 93.6255C825.56 93.6255 803.759 115.427 803.759 142.32C803.759 169.214 825.56 191.016 852.454 191.016Z" fill="#2F2E41"/>
<path id="Vector_2" d="M845.206 192.4C863.469 192.4 878.274 177.595 878.274 159.332C878.274 141.069 863.469 126.264 845.206 126.264C826.943 126.264 812.138 141.069 812.138 159.332C812.138 177.595 826.943 192.4 845.206 192.4Z" fill="#FFB8B8"/>
<path id="Vector_3" d="M825.544 177.206C825.544 177.206 839.844 210.274 832.694 213.849C825.544 217.424 821.969 233.511 821.969 233.511L840.738 272.835L866.655 288.922H881.849C881.849 288.922 897.042 220.999 891.68 212.955C886.317 204.912 866.655 200.443 866.655 200.443C866.655 200.443 862.187 189.719 863.974 179.888C865.762 170.057 825.544 177.206 825.544 177.206Z" fill="#FFB8B8"/>
<path id="Vector_4" d="M804.095 271.047L780.858 252.279C780.858 252.279 738.853 222.786 744.216 244.236C749.578 265.685 773.708 267.472 773.708 267.472L813.926 299.646L804.095 271.047Z" fill="#FFB8B8"/>
<path id="Vector_5" d="M802.307 369.357C802.307 369.357 791.583 414.043 802.307 474.816L806.776 498.946C806.776 498.946 806.776 517.714 811.245 524.864C811.245 524.864 822.863 631.217 829.119 631.217C835.375 631.217 855.037 627.642 856.824 624.961C858.612 622.28 821.969 364.888 821.969 364.888L802.307 369.357Z" fill="#D6D4F2"/>
<path id="Vector_6" opacity="0.1" d="M802.307 369.357C802.307 369.357 791.583 414.043 802.307 474.816L806.776 498.946C806.776 498.946 806.776 517.714 811.245 524.864C811.245 524.864 822.863 631.217 829.119 631.217C835.375 631.217 855.037 627.642 856.824 624.961C858.612 622.28 821.969 364.888 821.969 364.888L802.307 369.357Z" fill="#ECE4E4"/>
<path id="Vector_7" d="M831.658 624.079L817.814 675.385C817.814 675.385 790.125 691.673 807.227 694.93C824.329 698.188 841.431 691.673 841.431 691.673L849.574 668.056L857.718 663.169V688.415H860.161L865.862 655.026C865.862 655.026 865.048 637.924 860.161 636.295C855.275 634.666 852.832 625.708 852.832 625.708L831.658 624.079Z" fill="#A7B746"/>
<path id="Vector_8" d="M798.733 367.569C798.733 367.569 805.882 394.381 808.564 398.849C808.564 398.849 812.138 474.816 823.757 500.734L836.269 533.801C836.269 533.801 856.825 631.217 851.462 641.942C851.462 641.942 879.168 648.198 880.955 641.942C880.955 641.942 880.061 590.106 882.742 582.956C885.424 575.806 889.892 536.482 868.443 507.883V421.192C868.443 421.192 902.404 392.593 882.742 355.951C863.081 319.308 798.733 367.569 798.733 367.569Z" fill="#D2D0EE"/>
<path id="Vector_9" d="M854.143 636.579L838.95 692.884C838.95 692.884 808.564 710.758 827.332 714.333C846.1 717.908 864.868 710.758 864.868 710.758L873.805 684.84L882.743 679.478V707.183H885.424L891.68 670.541C891.68 670.541 890.786 651.773 885.424 649.985C880.061 648.198 877.38 638.367 877.38 638.367L854.143 636.579Z" fill="#A7B746"/>
<path id="Vector_10" d="M834.638 207.174C834.638 207.174 812.139 220.105 812.139 220.999C812.139 221.892 814.82 236.192 814.82 236.192C814.82 236.192 787.114 263.897 805.882 288.028C805.882 288.028 812.138 292.497 812.138 306.796V321.096C812.138 321.096 759.409 354.163 772.815 364.888C786.22 375.613 800.52 373.825 804.989 380.081C809.457 386.337 835.375 374.719 840.738 372.931C846.1 371.144 846.994 369.357 851.462 375.613C855.931 381.869 880.955 371.144 880.955 371.144C880.955 371.144 897.042 366.675 900.617 366.675C902.824 366.649 904.985 366.032 906.873 364.888L868.443 325.564L887.658 276.856C887.658 276.856 830.907 241.554 830.907 231.723C830.907 221.893 834.638 207.174 834.638 207.174Z" fill="#E6E4F8"/>
<path id="Vector_11" d="M869.337 209.38C869.337 209.38 857.718 225.467 866.655 247.81C875.593 270.153 889.892 296.071 889.892 296.071L867.549 303.221H846.994C846.994 303.221 804.095 296.071 808.564 312.158C813.032 328.245 843.419 321.096 843.419 321.096H861.293C861.293 321.096 901.511 325.564 906.873 318.414C906.873 318.414 921.173 317.521 914.917 288.922C908.66 260.323 890.395 211.367 890.395 211.367L869.337 209.38Z" fill="#FFB8B8"/>
<path id="Vector_12" d="M838.776 144.509C856 144.509 869.962 137.405 869.962 128.642C869.962 119.879 856 112.775 838.776 112.775C821.552 112.775 807.589 119.879 807.589 128.642C807.589 137.405 821.552 144.509 838.776 144.509Z" fill="#2F2E41"/>
<path id="Vector_13" d="M877.827 166.929C880.295 166.929 882.296 162.527 882.296 157.098C882.296 151.668 880.295 147.267 877.827 147.267C875.359 147.267 873.358 151.668 873.358 157.098C873.358 162.527 875.359 166.929 877.827 166.929Z" fill="#FFB8B8"/>
<path id="Vector_14" d="M874.252 125.817C889.06 125.817 901.064 113.813 901.064 99.0058C901.064 84.1981 889.06 72.1941 874.252 72.1941C859.444 72.1941 847.44 84.1981 847.44 99.0058C847.44 113.813 859.444 125.817 874.252 125.817Z" fill="#2F2E41"/>
<path id="Vector_15" opacity="0.3" d="M303 220.954C363.751 220.954 413 171.705 413 110.954C413 50.2028 363.751 0.954102 303 0.954102C242.249 0.954102 193 50.2028 193 110.954C193 171.705 242.249 220.954 303 220.954Z" fill="#6C63FF"/>
<path id="Vector_16" opacity="0.3" d="M90 481.954C125.899 481.954 155 452.853 155 416.954C155 381.056 125.899 351.954 90 351.954C54.1015 351.954 25 381.056 25 416.954C25 452.853 54.1015 481.954 90 481.954Z" fill="#6C63FF"/>
<path id="Vector_17" opacity="0.3" d="M507 549.954C580.454 549.954 640 490.408 640 416.954C640 343.5 580.454 283.954 507 283.954C433.546 283.954 374 343.5 374 416.954C374 490.408 433.546 549.954 507 549.954Z" fill="#6C63FF"/>
<path id="Vector_18" d="M66.1299 202.037L64.1738 201.62C64.5928 199.655 65.0295 197.696 65.4839 195.745L67.4321 196.198C66.9805 198.138 66.5464 200.084 66.1299 202.037Z" fill="#6C63FF"/>
<path id="Vector_19" d="M546 206.954C534.726 206.954 523.706 210.297 514.333 216.56C504.959 222.824 497.653 231.726 493.339 242.141C489.025 252.557 487.896 264.017 490.095 275.074C492.295 286.131 497.723 296.288 505.695 304.259C513.666 312.231 523.823 317.659 534.88 319.859C545.937 322.058 557.398 320.929 567.813 316.615C578.228 312.301 587.13 304.995 593.394 295.622C599.657 286.248 603 275.228 603 263.954C603 248.837 596.995 234.339 586.305 223.649C575.616 212.959 561.117 206.954 546 206.954V206.954ZM557.077 230.723C557.802 230.716 558.52 230.854 559.191 231.128C559.862 231.402 560.472 231.807 560.984 232.32C561.497 232.832 561.902 233.442 562.176 234.113C562.45 234.784 562.588 235.502 562.581 236.227C562.588 237.326 562.268 238.401 561.662 239.317C561.056 240.233 560.191 240.949 559.178 241.372C558.164 241.796 557.048 241.908 555.97 241.696C554.893 241.483 553.903 240.955 553.126 240.178C552.349 239.401 551.821 238.411 551.608 237.334C551.396 236.256 551.508 235.14 551.932 234.126C552.355 233.113 553.071 232.248 553.987 231.642C554.903 231.036 555.979 230.716 557.077 230.723V230.723ZM523.379 297.185C520.183 297.187 517.058 296.24 514.399 294.466C511.741 292.691 509.669 290.168 508.445 287.215C507.221 284.262 506.9 281.013 507.523 277.878C508.147 274.743 509.686 271.864 511.946 269.604C514.206 267.344 517.085 265.805 520.22 265.181C523.355 264.558 526.604 264.879 529.557 266.103C532.51 267.327 535.033 269.399 536.808 272.057C538.582 274.716 539.529 277.841 539.527 281.037C539.513 285.315 537.807 289.414 534.781 292.439C531.756 295.465 527.657 297.171 523.379 297.185H523.379ZM548.769 264.993V280.569C548.769 281.304 548.478 282.008 547.958 282.528C547.439 283.047 546.734 283.339 546 283.339C545.266 283.339 544.561 283.047 544.042 282.528C543.523 282.008 543.231 281.304 543.231 280.569V269.164C543.231 266.896 540.462 266.394 532.587 261.86C531.565 261.254 529.385 260.181 529.385 257.169C529.402 255.718 529.979 254.329 530.994 253.293L543.404 241.333C543.993 240.737 544.712 240.286 545.504 240.015C546.297 239.744 547.142 239.66 547.972 239.771C548.802 239.881 549.596 240.183 550.29 240.653C550.984 241.122 551.559 241.746 551.971 242.475L557.077 252.877H565.385C566.118 252.879 566.821 253.171 567.339 253.69C567.858 254.209 568.149 254.913 568.149 255.646C568.149 256.38 567.858 257.084 567.339 257.603C566.821 258.122 566.118 258.414 565.385 258.416H555.45C553.598 258.416 552.11 254.435 548.873 249.502L540.41 258.416C543.508 260.839 548.769 262.708 548.769 264.993H548.769ZM568.621 297.168C565.427 297.168 562.305 296.22 559.65 294.446C556.994 292.672 554.925 290.15 553.702 287.199C552.48 284.248 552.16 281.002 552.783 277.869C553.407 274.737 554.944 271.859 557.203 269.601C559.461 267.343 562.338 265.805 565.471 265.182C568.603 264.559 571.85 264.878 574.801 266.101C577.751 267.323 580.273 269.393 582.048 272.048C583.822 274.704 584.769 277.826 584.769 281.019C584.756 285.298 583.05 289.398 580.025 292.423C576.999 295.449 572.9 297.154 568.621 297.168H568.621Z" fill="#3F3D56"/>
<path id="Vector_20" d="M708 206.954C696.726 206.954 685.706 210.297 676.333 216.56C666.959 222.824 659.653 231.726 655.339 242.141C651.025 252.557 649.896 264.017 652.095 275.074C654.295 286.131 659.723 296.288 667.695 304.259C675.666 312.231 685.823 317.659 696.88 319.859C707.937 322.058 719.398 320.929 729.813 316.615C740.228 312.301 749.13 304.995 755.394 295.622C761.657 286.248 765 275.228 765 263.954C765 248.837 758.995 234.339 748.305 223.649C737.616 212.959 723.117 206.954 708 206.954ZM692.89 247.702C694.634 247.742 696.327 248.297 697.758 249.295C699.188 250.293 700.292 251.691 700.932 253.314C701.571 254.937 701.718 256.713 701.353 258.419C700.988 260.124 700.127 261.684 698.88 262.904C697.632 264.123 696.053 264.947 694.339 265.272C692.625 265.597 690.853 265.41 689.246 264.733C687.638 264.056 686.266 262.92 685.301 261.467C684.336 260.014 683.821 258.308 683.821 256.564C683.834 255.386 684.078 254.222 684.541 253.139C685.004 252.056 685.676 251.075 686.518 250.252C687.361 249.429 688.357 248.78 689.45 248.343C690.544 247.905 691.713 247.687 692.89 247.702V247.702ZM741.231 286.108H735.19V277.246H680.81V286.108H674.769V241.8H680.81V268.385H704.971V247.702H729.15C730.719 247.685 732.277 247.977 733.734 248.562C735.19 249.146 736.517 250.012 737.639 251.11C738.761 252.208 739.656 253.516 740.272 254.959C740.888 256.403 741.214 257.954 741.231 259.523V286.108Z" fill="#3F3D56"/>
<path id="Vector_21" d="M77.0769 248.723H60.1154C59.9319 248.724 59.7561 248.797 59.6264 248.927C59.4967 249.056 59.4236 249.232 59.4231 249.416V273.646C59.4236 273.83 59.4967 274.006 59.6264 274.135C59.7562 274.265 59.9319 274.338 60.1154 274.339H77.0769C77.8107 274.337 78.5138 274.044 79.0327 273.525C79.5515 273.006 79.844 272.303 79.8461 271.569V251.493C79.844 250.759 79.5515 250.056 79.0327 249.537C78.5138 249.018 77.8107 248.725 77.0769 248.723Z" fill="#3F3D56"/>
<path id="Vector_22" d="M73.2692 279.531C72.478 279.595 71.7218 279.885 71.0898 280.365C70.4579 280.846 69.9766 281.497 69.7029 282.242C69.4291 282.987 69.3743 283.795 69.545 284.57C69.7156 285.346 70.1046 286.056 70.6659 286.617C71.2272 287.178 71.9374 287.567 72.7127 287.738C73.4879 287.909 74.2958 287.854 75.0409 287.58C75.786 287.306 76.4372 286.825 76.9176 286.193C77.398 285.561 77.6875 284.805 77.7519 284.014C77.7995 283.413 77.7162 282.809 77.5077 282.244C77.2993 281.678 76.9706 281.165 76.5445 280.738C76.1183 280.312 75.6048 279.984 75.0394 279.775C74.4739 279.567 73.87 279.483 73.2692 279.531V279.531Z" fill="#3F3D56"/>
<path id="Vector_23" d="M40.0558 279.531C39.2646 279.595 38.5084 279.885 37.8764 280.365C37.2445 280.846 36.7632 281.497 36.4894 282.242C36.2157 282.987 36.1609 283.795 36.3315 284.57C36.5022 285.346 36.8911 286.056 37.4524 286.617C38.0137 287.178 38.724 287.567 39.4992 287.738C40.2745 287.909 41.0824 287.854 41.8275 287.58C42.5726 287.306 43.2238 286.825 43.7042 286.193C44.1845 285.561 44.474 284.805 44.5384 284.014C44.586 283.413 44.5027 282.809 44.2943 282.244C44.0858 281.678 43.7572 281.165 43.331 280.738C42.9049 280.312 42.3914 279.984 41.826 279.775C41.2605 279.567 40.6565 279.483 40.0558 279.531V279.531Z" fill="#3F3D56"/>
<path id="Vector_24" d="M53.8846 248.723H36.9577C36.2149 248.726 35.5034 249.022 34.9781 249.548C34.4529 250.073 34.1566 250.784 34.1539 251.527V271.535C34.1566 272.278 34.4529 272.989 34.9781 273.514C35.5034 274.04 36.2149 274.336 36.9577 274.339H53.8846C54.0681 274.338 54.2438 274.265 54.3736 274.135C54.5033 274.006 54.5764 273.83 54.5769 273.646V249.416C54.5764 249.232 54.5033 249.056 54.3736 248.927C54.2439 248.797 54.0681 248.724 53.8846 248.723V248.723Z" fill="#3F3D56"/>
<path id="Vector_25" d="M57 206.954C45.7265 206.954 34.7061 210.297 25.3325 216.56C15.9589 222.824 8.65309 231.726 4.33889 242.141C0.0246983 252.557 -1.10409 264.017 1.09526 275.074C3.29462 286.131 8.72335 296.288 16.6949 304.259C24.6665 312.231 34.823 317.659 45.8799 319.859C56.9368 322.058 68.3976 320.929 78.813 316.615C89.2284 312.301 98.1306 304.995 104.394 295.622C110.657 286.248 114 275.228 114 263.954C114 248.837 107.995 234.339 97.3051 223.649C86.6155 212.959 72.1174 206.954 57 206.954V206.954ZM84.6923 287.146C84.687 288.981 83.9558 290.739 82.6587 292.036C81.3615 293.333 79.6037 294.064 77.7692 294.069H36.2308C34.3963 294.064 32.6386 293.333 31.3414 292.036C30.0442 290.739 29.3131 288.981 29.3077 287.146V239.377C29.312 237.91 29.8969 236.503 30.9346 235.466C31.9724 234.428 33.3786 233.843 34.8462 233.839H79.1539C80.6215 233.843 82.0277 234.428 83.0654 235.466C84.1032 236.503 84.688 237.91 84.6923 239.377V287.146Z" fill="#3F3D56"/>
<path id="Vector_26" d="M77.25 238.685H36.75C36.4177 238.662 36.0843 238.708 35.7704 238.819C35.4565 238.93 35.1689 239.105 34.9254 239.332C34.6819 239.56 34.4878 239.834 34.355 240.14C34.2223 240.445 34.1538 240.775 34.1538 241.108C34.1538 241.441 34.2223 241.771 34.355 242.076C34.4878 242.381 34.6819 242.656 34.9254 242.884C35.1689 243.111 35.4565 243.286 35.7704 243.397C36.0843 243.508 36.4177 243.554 36.75 243.531H77.25C77.5822 243.554 77.9157 243.508 78.2296 243.397C78.5434 243.286 78.831 243.111 79.0745 242.884C79.318 242.656 79.5122 242.381 79.6449 242.076C79.7776 241.771 79.8461 241.441 79.8461 241.108C79.8461 240.775 79.7776 240.445 79.6449 240.14C79.5122 239.834 79.318 239.56 79.0745 239.332C78.831 239.105 78.5434 238.93 78.2296 238.819C77.9157 238.708 77.5822 238.662 77.25 238.685V238.685Z" fill="#3F3D56"/>
<path id="Vector_27" d="M227.615 265.512C226.473 265.512 225.538 267.208 225.538 269.319C225.538 271.431 226.473 273.127 227.615 273.127C228.758 273.127 229.692 271.431 229.692 269.319C229.692 267.208 228.758 265.512 227.615 265.512Z" fill="#3F3D56"/>
<path id="Vector_28" d="M212.385 265.512C211.242 265.512 210.308 267.208 210.308 269.319C210.308 271.431 211.242 273.127 212.385 273.127C213.527 273.127 214.462 271.431 214.462 269.319C214.462 267.208 213.527 265.512 212.385 265.512Z" fill="#3F3D56"/>
<path id="Vector_29" d="M220 206.954C208.726 206.954 197.706 210.297 188.333 216.56C178.959 222.824 171.653 231.726 167.339 242.141C163.025 252.557 161.896 264.017 164.095 275.074C166.295 286.131 171.723 296.288 179.695 304.259C187.667 312.231 197.823 317.659 208.88 319.859C219.937 322.058 231.398 320.929 241.813 316.615C252.228 312.301 261.131 304.995 267.394 295.622C273.657 286.248 277 275.228 277 263.954C277 248.837 270.995 234.339 260.305 223.649C249.616 212.959 235.117 206.954 220 206.954ZM193.346 262.016L196.496 245.262C197.31 240.71 199.421 237.127 203.385 237.127H209.338L209.685 235.76C209.988 234.567 210.68 233.509 211.652 232.754C212.623 231.998 213.819 231.588 215.05 231.589H224.915C226.144 231.588 227.337 231.996 228.309 232.748C229.28 233.5 229.974 234.553 230.281 235.743L230.627 237.127H236.615C240.492 237.127 242.552 240.641 243.521 245.244V245.262L246.688 262.033C246.714 262.158 246.704 262.288 246.659 262.408C246.615 262.528 246.539 262.633 246.438 262.712C246.338 262.791 246.217 262.84 246.09 262.855C245.963 262.869 245.835 262.849 245.719 262.794L241.323 260.77C241.22 260.727 241.129 260.658 241.059 260.57C240.989 260.482 240.943 260.378 240.925 260.268L238.121 245.452C237.602 243.548 236.875 242.683 235.335 242.683H204.683C203.16 242.683 202.329 243.6 201.896 245.452L199.092 260.268C199.071 260.377 199.024 260.48 198.954 260.567C198.885 260.654 198.796 260.724 198.694 260.77L194.315 262.777C194.2 262.83 194.072 262.849 193.945 262.834C193.819 262.819 193.7 262.769 193.6 262.69C193.5 262.612 193.423 262.508 193.379 262.389C193.334 262.27 193.323 262.141 193.346 262.016V262.016ZM254.39 272.798L244.923 296.319C240.163 296.319 235.11 292.512 235.11 292.512C231.994 294.087 225.919 295.471 221.385 295.731C220.9 295.748 220.433 295.766 220 295.766C219.567 295.766 219.1 295.766 218.615 295.731C214.081 295.471 208.006 294.069 204.89 292.512C204.89 292.512 199.837 296.319 195.077 296.319L185.61 272.798C185.464 272.429 185.387 272.036 185.385 271.639C185.385 271.041 185.556 270.457 185.878 269.954C186.2 269.451 186.66 269.05 187.202 268.8L219.412 254.002C219.593 253.917 219.791 253.872 219.991 253.872C220.192 253.872 220.39 253.917 220.571 254.002L252.798 268.8C253.34 269.05 253.8 269.451 254.122 269.954C254.444 270.457 254.615 271.041 254.615 271.639C254.613 272.036 254.536 272.429 254.39 272.798V272.798Z" fill="#3F3D56"/>
<path id="Vector_30" d="M383 206.954C371.726 206.954 360.706 210.297 351.332 216.56C341.959 222.824 334.653 231.726 330.339 242.141C326.025 252.557 324.896 264.017 327.095 275.074C329.295 286.131 334.723 296.288 342.695 304.259C350.666 312.231 360.823 317.659 371.88 319.859C382.937 322.058 394.398 320.929 404.813 316.615C415.228 312.301 424.13 304.995 430.394 295.622C436.657 286.248 440 275.228 440 263.954C440 248.837 433.995 234.339 423.305 223.649C412.616 212.959 398.117 206.954 383 206.954V206.954ZM409.258 269.51C408.669 269.51 406.714 269.493 406.143 269.458L394.91 269.164C394.852 269.162 394.794 269.176 394.742 269.203C394.691 269.23 394.647 269.27 394.616 269.319L377.758 294.519C377.508 294.913 377.163 295.237 376.755 295.461C376.346 295.684 375.887 295.801 375.421 295.8H371.32C370.35 295.8 370.021 294.831 370.368 293.931L379.039 269.198C379.059 269.147 379.066 269.092 379.06 269.037C379.054 268.982 379.035 268.93 379.004 268.884C378.974 268.838 378.933 268.8 378.884 268.774C378.836 268.747 378.782 268.732 378.727 268.731L357.664 268.264C357.445 268.259 357.228 268.305 357.03 268.398C356.831 268.491 356.657 268.629 356.521 268.8L349.996 276.71C349.735 277.038 349.404 277.303 349.026 277.486C348.649 277.669 348.235 277.764 347.816 277.766H344.925C344.815 277.767 344.705 277.741 344.606 277.691C344.508 277.641 344.422 277.568 344.358 277.478C344.293 277.388 344.251 277.284 344.236 277.174C344.22 277.065 344.231 276.953 344.268 276.848L347.712 264.958C347.971 264.296 347.971 263.56 347.712 262.898L344.268 251.008C344.231 250.903 344.22 250.792 344.236 250.682C344.251 250.572 344.293 250.468 344.358 250.378C344.422 250.288 344.508 250.215 344.606 250.165C344.705 250.115 344.815 250.089 344.925 250.091H347.833C348.253 250.088 348.668 250.182 349.046 250.365C349.424 250.548 349.755 250.815 350.014 251.146L356.418 258.935C356.552 259.108 356.726 259.247 356.925 259.34C357.123 259.433 357.341 259.478 357.56 259.471L378.744 259.16C378.8 259.16 378.855 259.146 378.903 259.119C378.952 259.093 378.994 259.055 379.025 259.009C379.055 258.963 379.074 258.91 379.08 258.855C379.085 258.8 379.077 258.744 379.056 258.693L370.385 233.977C370.039 233.077 370.368 232.108 371.337 232.108H375.439C375.904 232.109 376.362 232.227 376.77 232.45C377.179 232.674 377.524 232.997 377.775 233.389L394.616 258.606C394.646 258.656 394.689 258.698 394.741 258.725C394.793 258.753 394.851 258.765 394.91 258.762L406.143 258.468C406.696 258.433 408.669 258.416 409.258 258.416C416.943 258.416 421.771 260.908 421.771 263.971C421.771 267.035 416.925 269.51 409.258 269.51Z" fill="#3F3D56"/>
<path id="Vector_31" d="M65.6724 456.09C63.299 456.09 60.9789 455.386 59.0055 454.067C57.0321 452.749 55.4941 450.875 54.5858 448.682C53.6776 446.489 53.4399 444.076 53.9029 441.749C54.366 439.421 55.5089 437.283 57.1871 435.605C58.8653 433.926 61.0035 432.783 63.3313 432.32C65.6591 431.857 68.0719 432.095 70.2646 433.003C72.4573 433.912 74.3314 435.45 75.65 437.423C76.9686 439.396 77.6724 441.716 77.6724 444.09C77.6687 447.271 76.4033 450.321 74.1536 452.571C71.904 454.821 68.8539 456.086 65.6724 456.09ZM65.6724 434.09C63.6946 434.09 61.7612 434.676 60.1167 435.775C58.4722 436.874 57.1904 438.436 56.4336 440.263C55.6767 442.09 55.4787 444.101 55.8645 446.041C56.2504 447.981 57.2028 449.762 58.6013 451.161C59.9998 452.559 61.7816 453.512 63.7215 453.898C65.6613 454.284 67.6719 454.085 69.4992 453.329C71.3265 452.572 72.8883 451.29 73.9871 449.646C75.0859 448.001 75.6724 446.068 75.6724 444.09C75.6694 441.439 74.6149 438.897 72.7402 437.022C70.8655 435.147 68.3236 434.093 65.6724 434.09V434.09Z" fill="#F0F0F0"/>
<path id="Vector_32" d="M318.672 187.09C316.299 187.09 313.979 186.386 312.006 185.067C310.032 183.749 308.494 181.875 307.586 179.682C306.678 177.489 306.44 175.077 306.903 172.749C307.366 170.421 308.509 168.283 310.187 166.605C311.865 164.926 314.003 163.783 316.331 163.32C318.659 162.857 321.072 163.095 323.265 164.003C325.457 164.912 327.331 166.45 328.65 168.423C329.969 170.396 330.672 172.716 330.672 175.09C330.669 178.271 329.403 181.321 327.154 183.571C324.904 185.821 321.854 187.086 318.672 187.09V187.09ZM318.672 165.09C316.695 165.09 314.761 165.676 313.117 166.775C311.472 167.874 310.19 169.436 309.434 171.263C308.677 173.09 308.479 175.101 308.864 177.041C309.25 178.981 310.203 180.762 311.601 182.161C313 183.559 314.782 184.512 316.721 184.898C318.661 185.284 320.672 185.085 322.499 184.329C324.326 183.572 325.888 182.29 326.987 180.646C328.086 179.001 328.672 177.068 328.672 175.09C328.669 172.439 327.615 169.897 325.74 168.022C323.865 166.147 321.324 165.093 318.672 165.09Z" fill="#F0F0F0"/>
<path id="Vector_33" d="M542.144 516.46L528.679 502.024L543.115 488.558L556.58 502.995L542.144 516.46ZM530.825 502.098L542.219 514.314L554.434 502.92L543.04 490.705L530.825 502.098Z" fill="#F0F0F0"/>
</g>
</svg>
