<svg  viewBox="-95 0 409 409.6" width="409pt" xmlns="http://www.w3.org/2000/svg"><path d="m151.386719 0h-83.722657c-37.144531 0-67.363281 30.21875-67.363281 67.367188v274.867187c0 37.144531 30.21875 67.367187 67.367188 67.367187h83.71875c37.148437 0 67.367187-30.222656 67.367187-67.367187v-274.867187c0-37.148438-30.21875-67.367188-67.367187-67.367188zm53.714843 342.234375c0 29.617187-24.09375 53.710937-53.714843 53.710937h-83.722657c-29.613281 0-53.710937-24.09375-53.710937-53.710937v-274.867187c0-29.617188 24.097656-53.714844 53.714844-53.714844h83.71875c29.621093 0 53.714843 24.097656 53.714843 53.714844zm0 0"/><path d="m121.253906 82.515625c0 6.964844-5.648437 12.617187-12.617187 12.617187s-12.617188-5.652343-12.617188-12.617187c0-6.96875 5.648438-12.617187 12.617188-12.617187s12.617187 5.648437 12.617187 12.617187zm0 0"/><path d="m109.527344 61.441406c3.773437 0 6.824218-3.058594 6.824218-6.828125v-13.652343c0-3.769532-3.050781-6.828126-6.824218-6.828126-3.773438 0-6.828125 3.058594-6.828125 6.828126v13.652343c0 3.769531 3.054687 6.828125 6.828125 6.828125zm0 0"/><path d="m102.699219 109.226562v13.652344c0 3.769532 3.054687 6.828125 6.828125 6.828125 3.773437 0 6.824218-3.058593 6.824218-6.828125v-13.652344c0-3.769531-3.050781-6.828124-6.824218-6.828124-3.773438 0-6.828125 3.058593-6.828125 6.828124zm0 0"/><path d="m68.566406 88.746094h13.652344c3.773438 0 6.828125-3.054688 6.828125-6.824219 0-3.773437-3.054687-6.828125-6.828125-6.828125h-13.652344c-3.769531 0-6.828125 3.054688-6.828125 6.828125 0 3.769531 3.058594 6.824219 6.828125 6.824219zm0 0"/><path d="m130.007812 81.921875c0 3.769531 3.050782 6.824219 6.824219 6.824219h13.65625c3.773438 0 6.824219-3.054688 6.824219-6.824219 0-3.773437-3.050781-6.828125-6.824219-6.828125h-13.65625c-3.773437 0-6.824219 3.054688-6.824219 6.828125zm0 0"/><path d="m85.921875 68.464844c1.339844 1.417968 3.144531 2.132812 4.949219 2.132812 1.6875 0 3.375-.621094 4.695312-1.875 2.738282-2.59375 2.851563-6.914062.257813-9.648437l-11.839844-12.496094c-2.601563-2.730469-6.914063-2.847656-9.652344-.253906s-2.851562 6.914062-.257812 9.648437zm0 0"/><path d="m121.707031 96.300781c-2.738281 2.59375-2.851562 6.917969-.257812 9.652344l11.839843 12.492187c1.339844 1.417969 3.148438 2.128907 4.953126 2.128907 1.683593 0 3.375-.617188 4.691406-1.867188 2.742187-2.597656 2.855468-6.917969.261718-9.65625l-11.84375-12.492187c-2.585937-2.730469-6.90625-2.84375-9.644531-.257813zm0 0"/><path d="m126.402344 70.597656c1.804687 0 3.609375-.714844 4.949218-2.132812l11.84375-12.492188c2.59375-2.738281 2.480469-7.054687-.261718-9.652344-2.734375-2.589843-7.050782-2.476562-9.644532.257813l-11.839843 12.496094c-2.59375 2.734375-2.480469 7.054687.257812 9.652343 1.320313 1.25 3.003907 1.871094 4.695313 1.871094zm0 0"/><path d="m85.921875 96.558594-11.84375 12.492187c-2.59375 2.738281-2.480469 7.058594.253906 9.652344 1.320313 1.25 3.011719 1.871094 4.699219 1.871094 1.804688 0 3.609375-.710938 4.957031-2.128907l11.839844-12.492187c2.59375-2.738281 2.480469-7.058594-.261719-9.648437-2.734375-2.597657-7.050781-2.480469-9.644531.253906zm0 0"/><path d="m168.566406 350.402344-11.867187 10.941406-11.863281-10.941406c-2.613282-2.40625-6.640626-2.40625-9.253907 0l-11.859375 10.9375-11.867187-10.9375c-2.613281-2.40625-6.640625-2.40625-9.253907 0l-11.867187 10.941406-11.863281-10.941406c-2.613282-2.40625-6.640625-2.40625-9.253906 0l-11.867188 10.941406-11.863281-10.941406c-2.773438-2.5625-7.089844-2.378906-9.644531.394531-2.554688 2.769531-2.378907 7.085937.394531 9.644531l16.488281 15.203125c2.613281 2.40625 6.640625 2.40625 9.253906 0l11.867188-10.941406 11.863281 10.941406c2.609375 2.40625 6.640625 2.40625 9.253906 0l11.863281-10.941406 11.867188 10.941406c1.308594 1.203125 2.964844 1.808594 4.628906 1.808594 1.660156 0 3.316406-.605469 4.625-1.808594l11.859375-10.9375 11.867188 10.9375c2.613281 2.40625 6.640625 2.40625 9.253906 0l16.492187-15.203125c2.773438-2.558594 2.949219-6.871094.394532-9.644531-2.554688-2.765625-6.867188-2.945313-9.648438-.394531zm0 0"/><path d="m169.707031 202.511719c-14.941406-16.964844-30.601562-25.714844-46.546875-26.007813-15.0625-.480468-30.410156 7.113282-45.636718 21.898438-.675782-.226563-1.375-.429688-2.128907-.429688h-27.308593c-3.769532 0-6.824219 3.058594-6.824219 6.828125s3.054687 6.824219 6.824219 6.824219h25.445312c.0625.070312.085938.160156.152344.230469 10.332031 10.328125 20.675781 16.113281 30.558594 18.933593-6.351563 9.859376-20.472657 26.484376-41.292969 21.257813-4.726563-1.179687-12.59375-4.101563-12.214844-10.417969.222656-3.746094 3.070313-6.570312 3.699219-6.824218.003906 0 .324218.234374.753906 1.101562 1.683594 3.375 5.789062 4.75 9.160156 3.050781 3.367188-1.683593 4.738282-5.785156 3.050782-9.15625-3.261719-6.519531-9.234376-9.648437-15.613282-8.175781-8.167968 1.894531-14.636718 10.789062-14.71875 20.261719-.046875 5.328125 2.058594 18.28125 22.570313 23.410156 3.816406.953125 7.488281 1.386719 11.015625 1.386719 23.796875 0 40.800781-19.8125 48.222656-33.730469.253906.003906.515625.039063.765625.039063 1.199219 0 2.367187-.089844 3.539063-.160157v26.582031c0 3.769532 3.054687 6.824219 6.828124 6.824219 3.773438 0 6.824219-3.054687 6.824219-6.824219v-28.980468c19.1875-5.550782 32.332031-18.328125 32.582031-18.578125 2.546876-2.546875 2.679688-6.636719.292969-9.34375zm-81.320312 4.308593c12.019531-11.261718 23.453125-16.921874 34.523437-16.667968 10.414063.195312 21.085938 5.679687 31.800782 16.328125-10.972657 8.351562-38.109376 23.835937-66.324219.339843zm0 0"/><path d="m98.78125 170.097656c45.171875-22.589844 67.640625 13.109375 68.558594 14.617188 1.941406 3.226562 6.128906 4.285156 9.367187 2.339844 3.234375-1.9375 4.28125-6.132813 2.339844-9.363282-.292969-.488281-29.734375-48.132812-86.375-19.808594-39.84375 19.925782-51.898437 18.019532-53.429687 17.628907-2.660157-1.765625-6.261719-1.480469-8.597657.867187-2.664062 2.664063-2.664062 6.984375 0 9.652344 1.730469 1.730469 4.976563 3.371094 11.0625 3.371094 9.804688 0 26.984375-4.265625 57.074219-19.304688zm0 0"/><path d="m61.296875 286.71875c-.039063 0-.078125 0-.113281 0-3.769532.0625-6.777344 3.171875-6.71875 6.941406l.449218 27.304688c.0625 3.730468 3.105469 6.714844 6.824219 6.714844h.109375c3.773438-.0625 6.777344-3.167969 6.71875-6.9375l-.445312-27.308594c-.066406-3.730469-3.109375-6.714844-6.824219-6.714844zm0 0"/><path d="m102.699219 293.546875v27.304687c0 3.773438 3.054687 6.828126 6.828125 6.828126 3.773437 0 6.824218-3.054688 6.824218-6.828126v-27.304687c0-3.769531-3.050781-6.828125-6.824218-6.828125-3.773438 0-6.828125 3.058594-6.828125 6.828125zm0 0"/><path d="m150.488281 293.546875v27.304687c0 3.773438 3.050781 6.828126 6.824219 6.828126s6.828125-3.054688 6.828125-6.828126v-27.304687c0-3.769531-3.054687-6.828125-6.828125-6.828125s-6.824219 3.058594-6.824219 6.828125zm0 0"/></svg>