<?xml version="1.0" standalone="no"?>
<!DOCTYPE svg PUBLIC "-//W3C//DTD SVG 20010904//EN"
 "http://www.w3.org/TR/2001/REC-SVG-20010904/DTD/svg10.dtd">
<svg version="1.0" xmlns="http://www.w3.org/2000/svg"
 width="624.000000pt" height="624.000000pt" viewBox="0 0 624.000000 624.000000"
 preserveAspectRatio="xMidYMid meet">
<metadata>
Created by potrace 1.11, written by Peter Selinger 2001-2013
</metadata>
<g transform="translate(0.000000,624.000000) scale(0.100000,-0.100000)"
fill="#000000" stroke="none">
<path d="M2270 5984 c-25 -7 -67 -14 -95 -14 -58 0 -240 -44 -370 -90 -146
-50 -207 -61 -263 -43 -60 19 -197 13 -215 -9 -6 -8 -24 -22 -38 -30 -25 -16
-49 -73 -49 -116 0 -14 -24 -42 -69 -79 -86 -73 -116 -138 -136 -295 -7 -52
-17 -63 -116 -115 -63 -33 -162 -127 -228 -215 -50 -67 -100 -159 -100 -185 0
-10 -2 -50 -4 -89 l-4 -71 53 -64 c32 -37 56 -77 60 -96 4 -19 13 -41 21 -49
13 -12 11 -19 -15 -52 -84 -106 -124 -207 -121 -303 3 -66 6 -70 153 -194 33
-28 107 -97 165 -153 247 -241 453 -320 618 -236 43 22 55 23 113 17 114 -14
179 -8 277 26 51 17 98 31 105 31 7 0 48 -33 90 -73 80 -75 120 -95 218 -107
l45 -5 1 -125 c2 -186 32 -281 140 -445 106 -160 133 -279 86 -374 -12 -25
-22 -53 -22 -62 0 -10 -16 -53 -36 -96 -32 -70 -36 -87 -37 -168 -3 -124 20
-196 98 -310 111 -162 111 -162 157 -370 23 -106 96 -269 173 -385 13 -19 29
-64 36 -100 20 -109 63 -175 155 -238 43 -29 107 -50 130 -42 10 4 50 10 88
14 38 3 72 8 76 11 4 2 26 7 49 10 135 17 261 63 328 119 17 14 35 26 41 26 5
0 12 9 15 19 2 11 23 29 45 40 31 16 44 31 58 66 9 25 19 43 21 41 3 -2 43 52
89 121 55 82 86 138 90 164 5 32 11 39 29 39 59 0 101 28 180 121 37 44 15
204 -42 298 -25 41 -30 58 -22 68 6 7 48 36 94 63 45 28 107 73 138 101 46 41
59 60 75 112 33 101 35 146 13 239 -11 46 -25 108 -32 138 -6 30 -15 60 -20
65 -12 16 -29 133 -28 200 0 74 14 114 72 207 55 89 110 145 241 246 90 70
256 220 312 282 12 14 38 43 58 65 20 22 45 59 57 83 12 24 39 66 60 95 82
109 105 242 64 372 -18 57 -79 160 -100 169 -6 2 -39 -19 -75 -46 -77 -59
-136 -90 -209 -112 -55 -16 -136 -21 -165 -10 -9 3 -38 43 -66 89 -80 132
-133 199 -201 251 -35 27 -74 60 -87 74 -50 55 -104 204 -147 405 -35 164
-104 383 -140 444 -61 104 -112 127 -290 132 -96 3 -236 39 -327 85 -51 26
-109 47 -140 51 -76 10 -158 7 -171 -6 -6 -6 -17 -11 -24 -11 -15 0 -92 -80
-93 -97 0 -6 -7 -19 -16 -27 -14 -14 -19 -13 -54 9 -68 43 -173 93 -262 125
-49 18 -101 44 -118 60 -27 25 -30 34 -30 91 0 51 -4 68 -25 95 -14 18 -25 36
-25 39 0 8 -17 25 -60 57 -28 21 -51 28 -110 33 -41 3 -91 8 -110 9 -19 2 -55
-2 -80 -10z m130 -283 c0 -19 -12 -44 -35 -71 -19 -23 -35 -45 -35 -50 0 -14
72 -90 87 -90 7 0 64 -20 124 -46 61 -25 143 -57 182 -71 63 -22 127 -52 322
-152 57 -29 116 -31 203 -6 44 13 58 24 85 62 65 93 49 88 157 50 52 -19 113
-42 134 -51 53 -22 150 -44 227 -51 99 -9 133 -15 140 -23 12 -13 92 -288 105
-362 3 -14 10 -43 16 -65 6 -22 11 -44 12 -50 18 -81 96 -286 118 -308 10 -10
18 -22 18 -27 0 -5 55 -65 123 -133 68 -68 131 -140 140 -160 10 -20 22 -39
27 -42 4 -3 33 -40 64 -83 64 -90 105 -136 112 -129 3 3 21 -1 41 -9 55 -24
142 -28 200 -11 28 9 60 14 70 12 10 -2 25 -4 34 -4 33 -2 28 -31 -15 -88 -42
-58 -224 -242 -281 -285 -16 -12 -32 -25 -35 -28 -3 -3 -39 -32 -80 -65 -156
-124 -214 -181 -264 -259 -20 -31 -36 -60 -36 -64 0 -4 -11 -28 -24 -54 -21
-42 -40 -87 -54 -128 -22 -68 -6 -292 29 -388 11 -32 31 -101 45 -154 l26 -97
-32 -41 c-18 -22 -46 -48 -64 -57 -17 -9 -33 -19 -36 -22 -3 -3 -30 -23 -60
-43 -117 -80 -153 -123 -170 -206 -13 -60 1 -117 51 -209 16 -28 26 -54 21
-56 -4 -3 -27 -8 -52 -12 -67 -11 -116 -48 -134 -103 -19 -54 -20 -84 -4 -100
8 -8 0 -25 -33 -67 -24 -31 -49 -64 -54 -73 -21 -34 -104 -157 -117 -172 -18
-21 -74 -53 -155 -89 -66 -28 -143 -43 -232 -44 -55 -1 -71 17 -100 113 -12
39 -37 91 -55 115 -94 122 -139 227 -166 383 -17 101 -51 204 -77 240 -15 21
-50 69 -78 107 -51 70 -75 133 -75 198 0 39 37 167 81 281 17 43 31 97 31 120
1 32 -10 139 -17 166 -1 3 -5 21 -9 40 -5 19 -12 40 -16 45 -4 6 -10 22 -14
37 -3 14 -28 62 -55 105 -26 43 -62 105 -80 137 -17 33 -36 65 -41 71 -5 7
-11 70 -12 141 -2 204 -25 268 -136 384 l-58 60 -38 -11 c-53 -15 -109 8 -166
66 -24 25 -48 45 -53 45 -8 0 -90 34 -117 49 -17 9 -172 -14 -203 -31 -22 -11
-85 -17 -222 -18 -48 -1 -104 -9 -140 -20 -103 -33 -134 -33 -216 -4 -69 24
-82 34 -189 140 -63 63 -144 140 -179 172 l-63 58 22 45 c13 24 33 58 45 74
30 39 44 111 40 200 -3 80 -22 185 -34 185 -4 0 -24 25 -44 55 -37 55 -37 56
-21 88 10 18 30 46 45 62 15 17 36 39 46 51 27 31 126 109 191 150 31 20 69
49 83 64 34 35 67 130 75 216 7 72 22 96 75 118 33 14 97 103 106 148 7 34 12
35 42 7 21 -19 29 -20 119 -14 61 4 113 14 139 26 23 10 48 19 55 19 7 0 29 8
48 19 35 18 120 48 156 55 118 22 248 40 316 44 47 3 48 2 48 -27z"/>
<path d="M1560 5336 c-6 -6 -10 -14 -10 -19 0 -5 -11 -36 -24 -70 -13 -34 -60
-159 -104 -277 -201 -538 -241 -647 -250 -671 l-10 -25 173 0 173 1 29 85 30
85 179 3 180 2 28 -88 28 -88 112 2 c61 1 143 3 183 3 l71 1 -100 263 c-55
144 -104 273 -108 287 -5 14 -51 135 -102 270 l-94 245 -187 0 c-111 1 -191
-3 -197 -9z m198 -313 c-1 -5 21 -81 50 -169 29 -89 52 -165 52 -170 0 -5 -33
-8 -72 -7 -40 1 -90 2 -112 2 -46 1 -47 -16 20 199 27 83 52 152 56 152 4 0 7
-3 6 -7z"/>
<path d="M3019 4589 c-141 -12 -282 -72 -350 -146 -51 -57 -106 -164 -114
-220 -3 -21 -8 -54 -11 -73 -4 -19 -9 -77 -11 -128 -5 -89 -4 -97 37 -206 38
-106 45 -117 106 -176 35 -34 64 -65 64 -69 0 -4 28 -17 63 -29 179 -62 317
-75 447 -42 75 19 95 30 191 102 90 67 112 89 137 136 47 90 59 145 60 277 1
164 -18 250 -75 337 -70 106 -111 143 -216 192 -81 39 -105 45 -173 48 -43 3
-113 1 -155 -3z m156 -264 c44 -22 95 -73 112 -115 8 -19 17 -83 20 -142 12
-224 -57 -328 -217 -328 -130 0 -198 75 -226 246 -10 69 13 208 44 259 15 25
32 45 39 45 7 0 16 7 21 15 19 34 150 46 207 20z"/>
<path d="M3295 3233 c-4 -10 -36 -97 -71 -193 -36 -96 -68 -184 -73 -195 -8
-18 -137 -365 -220 -593 l-31 -83 170 3 c94 1 175 5 180 8 9 5 17 37 36 138
l7 32 188 0 189 0 27 -90 27 -90 178 0 c98 0 178 3 178 7 0 4 -50 140 -111
303 -61 162 -151 401 -199 530 l-88 235 -190 3 c-174 2 -190 1 -197 -15z m301
-638 c-3 -10 -226 -15 -226 -5 0 3 26 85 57 184 l58 178 57 -173 c31 -96 56
-178 54 -184z"/>
<path d="M5230 2520 c0 -14 -114 -153 -151 -184 -17 -14 -37 -26 -44 -26 -22
0 -65 -22 -65 -33 0 -6 -8 -19 -17 -30 -15 -16 -18 -39 -18 -126 -1 -60 -6
-118 -13 -134 -21 -49 -15 -150 14 -221 32 -80 62 -110 101 -102 33 8 93 55
93 74 0 7 7 23 15 35 8 13 23 72 34 133 11 60 31 143 44 184 23 68 38 121 55
190 7 27 8 178 1 222 -3 21 -10 28 -26 28 -13 0 -23 -5 -23 -10z"/>
</g>
</svg>
